<?xml version="1.0" encoding="UTF-8"?>
<!-- Uploaded to: SVG Repo, www.svgrepo.com, Generator: SVG Repo Mixer Tools -->
<svg width="24" height="24" fill="#000000" role="img" version="1.1" viewBox="0 0 .72 .72" xmlns="http://www.w3.org/2000/svg">
 <path d="m.67134 2.3319e-8h-.62268a.05163.05163 0 00-.0486.04785l-6e-5.62349c.00174.02628.02136.04629.04668.0486a.01011.01011 0 00.00135 6e-5h.62391a.01374.01374 0 00.00129-6e-5.05169.05169 0 00.04677-.05124v-.6174a.0516.0516 0 00-.04755-.05124.0099.0099 0 00-.00111-6e-5zm0 .01488a.03642.03642 0 01.03375.03642v.6174c0 .01911-.01461.0348-.03312.03642h-.62391a.03642.03642 0 01-.03318-.03378v-.6225a.0363.0363 0 01.03378-.03396zm-.52749.23292v.22092h-.05715v-.22092zm.19611 0v.22092h-.04983v-.1491l-.02013.14907h-.03561l-.02097-.14586-.00018.14586h-.05004v-.22089h.07404c.00225.01344.00447.0291.0069.04722l.00816.05613.0132-.10335zm.08931.0399a.0084.0084 0 01.00426.00609c.00084.00285.00105.00933.00105.01932v.08565c0 .01464-.00105.02358-.00288.02685-.0018.00345-.0069.0051-.01506.0051v-.14511c.00612 0 .01038 6e-4.01263.00204zm-6e-4.18102c.01362 0 .024-.00081.03072-.00222.0069-.00144.0126-.00408.0171-.00795a.02883.02883 0 00.00972-.01566c.00183-.00672.00306-.01995.00306-.03966v-.07752c0-.02094-.00081-.03498-.00222-.04209a.03831.03831 0 00-.00939-.01932c-.00507-.00591-.0126-.00999-.02235-.01263-.0096-.00243-.02562-.00387-.0531-.00387h-.04272v.22092h.06915zm.1542-.05349c0 .01059-6e-4.01728-.00165.02013-.00099.00285-.0057.00426-.00915.00426-.00324 0-.0057-.00141-.00672-.00405-.0012-.00264-.0018-.00894-.0018-.01869v-.05841c0-.00999 6e-4-.01629.00162-.01872.00102-.0024.00324-.00366.00651-.00366.00345 0 .0081.00123.00933.00426.00123.00285.00183.00897.00183.01812v.05676zm-.07425-.1674v.22089h.05145l.00345-.01404c.00468.0057.00978.00999.01548.01284.00546.00264.0138.00405.02034.00405.00912 0 .01689-.00225.0234-.00711a.0315.0315 0 00.0126-.01689c.00162-.00651.00264-.01629.00264-.02952v-.06201a.216.216 0 00-.00102-.02604.03075.03075 0 00-.0051-.0126.03039.03039 0 00-.01281-.00999.05787.05787 0 00-.04026.00039.04887.04887 0 00-.01527.012v-.072h-.0549z" style="stroke-width:.03"/>
</svg>
