<svg role="img" viewBox="0 0 24 24" xmlns="http://www.w3.org/2000/svg"><title>IMDB</title>
<path d="M 1.17,0.03
           C 1.17,0.03 3.14,0.00 3.14,0.00
             3.14,0.00 6.94,0.00 6.94,0.00
             6.94,0.00 18.84,0.00 18.84,0.00
             18.84,0.00 22.45,0.00 22.45,0.00
             22.58,0.00 22.70,-0.00 22.83,0.03
             23.32,0.16 23.84,0.68 23.97,1.17
             24.00,1.30 24.00,1.42 24.00,1.55
             24.00,1.55 24.00,18.80 24.00,18.80
             24.00,18.80 24.00,22.45 24.00,22.45
             24.00,22.58 24.01,22.71 23.97,22.83
             23.83,23.31 23.32,23.84 22.83,23.97
             22.70,24.00 22.58,24.00 22.45,24.00
             22.45,24.00 5.20,24.00 5.20,24.00
             5.20,24.00 1.55,24.00 1.55,24.00
             1.42,24.00 1.29,24.00 1.17,23.98
             0.68,23.86 0.16,23.32 0.03,22.83
             -0.00,22.70 0.00,22.58 0.00,22.45
             0.00,22.45 0.00,5.53 0.00,5.53
             0.00,5.53 0.00,1.55 0.00,1.55
             0.00,0.82 0.50,0.26 1.17,0.03 Z
           M 4.73,8.30
           C 4.73,8.30 2.91,8.30 2.91,8.30
             2.91,8.30 2.91,15.56 2.91,15.56
             2.91,15.56 4.73,15.56 4.73,15.56
             4.73,15.56 4.73,8.30 4.73,8.30 Z
           M 7.88,8.30
           C 7.88,8.30 5.48,8.30 5.48,8.30
             5.48,8.30 5.48,15.56 5.48,15.56
             5.48,15.56 7.03,15.56 7.03,15.56
             7.03,15.56 7.03,13.55 7.03,13.55
             7.03,13.55 7.08,12.75 7.08,12.75
             7.08,12.75 7.08,10.78 7.08,10.78
             7.08,10.78 7.17,10.78 7.17,10.78
             7.17,10.78 7.29,11.62 7.29,11.62
             7.29,11.62 7.33,12.09 7.33,12.09
             7.33,12.09 7.50,13.08 7.50,13.08
             7.50,13.08 7.56,13.69 7.56,13.69
             7.56,13.69 7.76,14.91 7.76,14.91
             7.76,14.91 7.83,15.56 7.83,15.56
             7.83,15.56 8.95,15.56 8.95,15.56
             8.95,15.56 9.13,14.48 9.13,14.48
             9.13,14.48 9.20,13.73 9.20,13.73
             9.20,13.73 9.37,12.70 9.37,12.70
             9.37,12.70 9.56,11.25 9.56,11.25
             9.56,11.25 9.70,10.59 9.70,10.59
             9.70,10.59 9.70,15.56 9.70,15.56
             9.70,15.56 11.30,15.56 11.30,15.56
             11.30,15.56 11.30,8.30 11.30,8.30
             11.30,8.30 9.28,8.30 9.28,8.30
             9.28,8.30 8.94,8.34 8.94,8.34
             8.94,8.34 8.77,9.09 8.77,9.09
             8.77,9.09 8.70,9.84 8.70,9.84
             8.70,9.84 8.48,11.72 8.48,11.72
             8.48,11.72 8.34,11.72 8.34,11.72
             8.34,11.72 8.22,10.78 8.22,10.78
             8.22,10.78 8.19,10.41 8.19,10.41
             8.19,10.41 7.99,9.19 7.99,9.19
             7.99,9.19 7.96,8.77 7.96,8.77
             7.96,8.77 7.88,8.30 7.88,8.30 Z
           M 12.00,15.56
           C 12.00,15.56 14.62,15.56 14.62,15.56
             15.14,15.56 15.71,15.52 16.03,15.05
             16.27,14.69 16.20,14.53 16.22,14.16
             16.22,14.16 16.27,13.69 16.27,13.69
             16.27,13.69 16.27,10.36 16.27,10.36
             16.27,10.36 16.22,9.89 16.22,9.89
             16.19,9.47 16.24,9.34 15.98,8.95
             15.71,8.56 15.30,8.45 14.86,8.37
             14.14,8.24 12.78,8.30 12.00,8.30
             12.00,8.30 12.00,15.56 12.00,15.56 Z
           M 18.70,8.30
           C 18.70,8.30 16.97,8.30 16.97,8.30
             16.97,8.30 16.97,15.56 16.97,15.56
             16.97,15.56 18.09,15.56 18.09,15.56
             18.22,15.56 18.49,15.58 18.59,15.51
             18.70,15.43 18.73,15.22 18.75,15.09
             18.89,15.22 19.10,15.42 19.27,15.51
             19.46,15.60 19.80,15.70 20.02,15.69
             20.43,15.67 20.92,15.39 21.09,15.00
             21.15,14.87 21.19,14.37 21.19,14.20
             21.19,14.20 21.19,12.05 21.19,12.05
             21.19,11.71 21.21,11.14 21.11,10.83
             20.90,10.20 19.96,10.05 19.41,10.24
             19.04,10.37 18.99,10.48 18.70,10.69
             18.70,10.69 18.70,8.30 18.70,8.30 Z
           M 13.88,9.47
           C 14.47,9.50 14.53,9.66 14.53,10.22
             14.53,10.22 14.53,13.55 14.53,13.55
             14.52,14.10 14.49,14.38 13.88,14.39
             13.88,14.39 13.88,9.47 13.88,9.47 Z
           M 18.99,11.18
           C 19.47,11.12 19.50,11.44 19.50,11.81
             19.50,11.81 19.47,13.92 19.47,13.92
             19.45,14.08 19.46,14.41 19.41,14.52
             19.33,14.70 19.00,14.72 18.87,14.59
             18.79,14.51 18.80,14.40 18.80,14.30
             18.80,14.30 18.80,11.67 18.80,11.67
             18.80,11.44 18.76,11.29 18.99,11.18 Z" />
</svg>