<?xml version="1.0" encoding="UTF-8" standalone="no"?>
<!DOCTYPE svg PUBLIC "-//W3C//DTD SVG 20010904//EN"
              "http://www.w3.org/TR/2001/REC-SVG-20010904/DTD/svg10.dtd">

<svg xmlns="http://www.w3.org/2000/svg"
     width="0.266667in" height="0.266667in"
     viewBox="0 0 24 24">
  <path id="Selection"
        fill="none" stroke="black" stroke-width="1"
        d="M 0.00,0.00
           C 0.00,0.00 24.00,0.00 24.00,0.00
             24.00,0.00 24.00,24.00 24.00,24.00
             24.00,24.00 0.00,24.00 0.00,24.00
             0.00,24.00 0.00,0.00 0.00,0.00 Z
           M 4.00,9.00
           C 4.00,9.00 4.00,15.00 4.00,15.00
             4.00,15.00 4.00,9.00 4.00,9.00 Z
           M 8.00,9.00
           C 8.00,9.00 6.00,9.00 6.00,9.00
             6.00,9.00 7.00,15.00 7.00,15.00
             7.00,15.00 8.00,9.00 8.00,9.00 Z
           M 10.00,9.00
           C 10.00,9.00 11.00,15.00 11.00,15.00
             11.00,15.00 10.00,9.00 10.00,9.00 Z
           M 14.00,9.00
           C 14.00,9.00 12.00,9.00 12.00,9.00
             12.00,9.00 12.00,15.00 12.00,15.00
             12.00,15.00 14.00,15.00 14.00,15.00
             14.00,15.00 14.00,9.00 14.00,9.00 Z
           M 16.00,9.00
           C 16.00,9.00 16.00,15.00 16.00,15.00
             16.00,15.00 16.00,9.00 16.00,9.00 Z
           M 18.00,9.00
           C 18.00,9.00 18.00,15.00 18.00,15.00
             18.00,15.00 18.00,9.00 18.00,9.00 Z" />
</svg>
