<svg width="24" height="24" version="1.1" viewBox="0 0 .72 .72" xmlns="http://www.w3.org/2000/svg">
 <path d="m.42584.28948c-.00228-.00128-.0064-.00192-.01252-.00192v.14168c.00804 0 .01296-.00164.01484-.00488s.0028-.01204.0028-.0264v-.08368c0-.00976-.00032-.016-.00092-.01876a.00892.00892 0 00-.0042-.00604zm.13996.04728c-.00328 0-.00548.00124-.00648.00364-.001.00244-.00148.00856-.00148.0184v.05704c0 .00948.00056.01556.00164.01824.00116.00264.00344.004.00672.004.00344 0 .00796-.0014.009-.00412.00108-.00276.00156-.00936.00156-.0198v-.05536c0-.00912-.00056-.01508-.00172-.01788-.00128-.00276-.00588-.00416-.00924-.00416z" style="stroke-width:.04"/>
 <path d="m.68 0h-.64a.04.04 0 00-.04.04v.64a.04.04 0 00.04.04h.64a.04.04 0 00.04-.04v-.64a.04.04 0 00-.04-.04zm-.53476.46652h-.05608v-.21588h.05608zm.19288 0h-.04892l-.00024-.14572-.0196.14572h-.035l-.02068-.14252-.00016.14252h-.04908v-.21588h.07276c.00204.01308.00428.0284.00664.046l.00804.05484.01296-.10084h.07328zm.14656-.06404c0 .01936-.00108.03232-.00288.0388a.02912.02912 0 01-.00952.01532.03984.03984 0 01-.01688.00772c-.00664.00148-.01672.0022-.03016.0022h-.06796v-.21588h.04188c.02712 0 .0428.00124.05236.00372.0096.00248.01688.00656.0218.01224.005.00568.00812.012.00936.019.00124.00696.00204.02064.00204.04104v.07584zm.14616.01448c0 .01296-.00092.0226-.00264.02892a.03028.03028 0 01-.01236.01652.03788.03788 0 01-.02288.00696c-.00632 0-.0146-.0014-.02008-.00416a.04576.04576 0 01-.01508-.01248l-.00352.01376h-.05048v-.21584h.054v.0702a.0436.0436 0 01.015-.01156c.00548-.00256.01376-.00384.02016-.00384.00744 0 .01392.00116.01936.00348a.02864.02864 0 01.0176.02196c.00064.004.00092.01252.00092.02552z" style="stroke-width:.04"/>
</svg>
